<svg xmlns="http://www.w3.org/2000/svg" xmlns:xlink="http://www.w3.org/1999/xlink" width="1920" zoomAndPan="magnify" viewBox="0 0 1440 419.999985" height="560" preserveAspectRatio="xMidYMid meet" version="1.0"><defs><g/><clipPath id="852df00528"><path d="M 21.542969 0 L 441.542969 0 L 441.542969 420 L 21.542969 420 Z M 21.542969 0 " clip-rule="nonzero"/></clipPath><clipPath id="3ca1741af1"><path d="M 231.542969 0 C 115.5625 0 21.542969 94.019531 21.542969 210 C 21.542969 325.980469 115.5625 420 231.542969 420 C 347.523438 420 441.542969 325.980469 441.542969 210 C 441.542969 94.019531 347.523438 0 231.542969 0 Z M 231.542969 0 " clip-rule="nonzero"/></clipPath></defs><g fill="#000000" fill-opacity="1"><g transform="translate(474.138015, 338.743799)"><g><path d="M 378.546875 -242.65625 L 295.703125 1.734375 L 249.25 1.734375 L 194.46875 -157.03125 L 139.703125 1.734375 L 93.25 1.734375 L 10.40625 -242.65625 L 67.59375 -242.65625 L 117.859375 -78.34375 L 172.28125 -243.359375 L 218.046875 -243.359375 L 272.46875 -78.34375 L 322.734375 -242.65625 Z M 378.546875 -242.65625 "/></g></g></g><g fill="#000000" fill-opacity="1"><g transform="translate(863.084176, 338.743799)"><g><path d="M 80.078125 -206.265625 L 24.609375 -206.265625 L 24.609375 -253.0625 L 80.078125 -253.0625 Z M 78.6875 0 L 26 0 L 26 -185.8125 L 78.6875 -185.8125 Z M 78.6875 0 "/></g></g></g><g fill="#000000" fill-opacity="1"><g transform="translate(967.773816, 338.743799)"><g><path d="M 203.484375 0 L 143.171875 0 L 94.640625 -75.921875 L 76.265625 -56.5 L 76.265625 0 L 23.578125 0 L 23.578125 -253.0625 L 76.265625 -253.0625 L 76.265625 -118.203125 L 137.96875 -185.8125 L 201.0625 -185.8125 L 130.34375 -112.65625 Z M 203.484375 0 "/></g></g></g><g fill="#000000" fill-opacity="1"><g transform="translate(1172.993249, 338.743799)"><g><path d="M 223.9375 0 L 21.84375 0 L 21.84375 -40.5625 L 155.296875 -195.859375 L 26 -195.859375 L 26 -242.65625 L 223.9375 -242.65625 L 223.9375 -202.09375 L 90.484375 -46.796875 L 223.9375 -46.796875 Z M 223.9375 0 "/></g></g></g><g clip-path="url(#852df00528)"><g clip-path="url(#3ca1741af1)"><path fill="#5271ff" d="M 21.542969 0 L 441.542969 0 L 441.542969 420 L 21.542969 420 Z M 21.542969 0 " fill-opacity="1" fill-rule="nonzero"/></g></g><g fill="#000000" fill-opacity="1"><g transform="translate(343.596436, 344.700597)"><g><path d="M 0 -105.96875 C 0.9375 -103.53125 1.265625 -101.285156 0.984375 -99.234375 C 0.703125 -97.179688 0.1875 -95.6875 -0.5625 -94.75 C -6.726562 -92.132812 -14.0625 -89.003906 -22.5625 -85.359375 C -31.070312 -81.710938 -39.625 -78.113281 -48.21875 -74.5625 C -56.8125 -71.007812 -64.097656 -67.832031 -70.078125 -65.03125 C -76.617188 -62.039062 -83.207031 -59.144531 -89.84375 -56.34375 C -96.476562 -53.539062 -103.066406 -50.738281 -109.609375 -47.9375 C -117.085938 -44.757812 -124.46875 -41.535156 -131.75 -38.265625 C -139.039062 -34.992188 -146.425781 -31.675781 -153.90625 -28.3125 C -158.757812 -26.257812 -163.707031 -24.15625 -168.75 -22 C -173.800781 -19.851562 -178.753906 -17.566406 -183.609375 -15.140625 C -185.109375 -14.390625 -186.507812 -13.453125 -187.8125 -12.328125 C -189.125 -11.210938 -190.4375 -10.1875 -191.75 -9.25 L -191.1875 -8.40625 L -194.546875 -8.40625 L -193.984375 -8.96875 C -194.734375 -9.34375 -195.296875 -9.71875 -195.671875 -10.09375 C -197.722656 -11.582031 -198.28125 -13.453125 -197.34375 -15.703125 C -196.601562 -17.191406 -196.140625 -18.773438 -195.953125 -20.453125 C -195.765625 -22.140625 -195.671875 -23.921875 -195.671875 -25.796875 C -195.859375 -28.597656 -195.90625 -31.398438 -195.8125 -34.203125 C -195.71875 -37.003906 -196.140625 -39.804688 -197.078125 -42.609375 C -197.628906 -44.296875 -197.34375 -46.070312 -196.21875 -47.9375 C -195.101562 -49.800781 -193.707031 -50.828125 -192.03125 -51.015625 C -186.039062 -52.140625 -180.335938 -54.054688 -174.921875 -56.765625 C -169.503906 -59.472656 -163.992188 -61.945312 -158.390625 -64.1875 C -152.035156 -66.8125 -145.773438 -69.570312 -139.609375 -72.46875 C -133.441406 -75.363281 -127.179688 -78.210938 -120.828125 -81.015625 L -86.625 -96.15625 C -84.75 -97.082031 -82.878906 -97.921875 -81.015625 -98.671875 C -79.148438 -99.421875 -77.09375 -100.265625 -74.84375 -101.203125 C -77.269531 -102.503906 -79.554688 -103.671875 -81.703125 -104.703125 C -83.859375 -105.734375 -85.960938 -106.710938 -88.015625 -107.640625 C -95.679688 -111.191406 -104.1875 -115.160156 -113.53125 -119.546875 C -122.875 -123.941406 -131.378906 -127.914062 -139.046875 -131.46875 C -140.160156 -132.96875 -140.8125 -134.226562 -141 -135.25 C -141.1875 -136.28125 -140.535156 -137.640625 -139.046875 -139.328125 C -136.242188 -140.628906 -132.550781 -142.304688 -127.96875 -144.359375 C -123.394531 -146.421875 -118.816406 -148.476562 -114.234375 -150.53125 C -109.648438 -152.59375 -105.957031 -154.179688 -103.15625 -155.296875 C -98.863281 -157.359375 -94.566406 -159.320312 -90.265625 -161.1875 C -85.960938 -163.050781 -81.664062 -164.921875 -77.375 -166.796875 C -77.1875 -166.984375 -76.90625 -167.21875 -76.53125 -167.5 C -76.15625 -167.78125 -75.6875 -168.015625 -75.125 -168.203125 C -76.4375 -168.753906 -77.601562 -169.3125 -78.625 -169.875 C -79.65625 -170.4375 -80.734375 -170.90625 -81.859375 -171.28125 C -88.585938 -174.457031 -95.3125 -177.632812 -102.03125 -180.8125 C -108.757812 -183.988281 -115.582031 -187.070312 -122.5 -190.0625 C -130.914062 -193.800781 -139.328125 -197.628906 -147.734375 -201.546875 C -156.140625 -205.472656 -164.550781 -209.398438 -172.96875 -213.328125 C -174.269531 -213.890625 -175.523438 -214.5 -176.734375 -215.15625 C -177.953125 -215.8125 -179.21875 -216.414062 -180.53125 -216.96875 C -182.03125 -217.53125 -183.570312 -218.140625 -185.15625 -218.796875 C -186.75 -219.453125 -188.382812 -219.96875 -190.0625 -220.34375 C -192.675781 -221.082031 -194.632812 -222.429688 -195.9375 -224.390625 C -197.25 -226.359375 -197.628906 -228.554688 -197.078125 -230.984375 C -196.328125 -233.609375 -195.859375 -236.273438 -195.671875 -238.984375 C -195.484375 -241.691406 -195.484375 -244.445312 -195.671875 -247.25 C -195.859375 -248.5625 -196.046875 -249.867188 -196.234375 -251.171875 C -196.421875 -252.484375 -196.703125 -253.789062 -197.078125 -255.09375 C -198.003906 -257.34375 -197.816406 -259.304688 -196.515625 -260.984375 L -188.9375 -260.421875 C -187.070312 -258.554688 -185.109375 -257.25 -183.046875 -256.5 C -176.140625 -253.132812 -169.085938 -249.816406 -161.890625 -246.546875 C -154.691406 -243.273438 -147.539062 -239.957031 -140.4375 -236.59375 C -132.96875 -233.039062 -125.492188 -229.582031 -118.015625 -226.21875 C -110.546875 -222.851562 -103.070312 -219.398438 -95.59375 -215.859375 L -46.25 -193.140625 C -42.144531 -191.273438 -38.128906 -189.40625 -34.203125 -187.53125 C -30.273438 -185.664062 -26.253906 -183.800781 -22.140625 -181.9375 C -18.585938 -180.4375 -15.128906 -178.84375 -11.765625 -177.15625 C -8.410156 -175.476562 -4.957031 -173.894531 -1.40625 -172.40625 C -0.46875 -172.03125 0.28125 -170.488281 0.84375 -167.78125 C 1.40625 -165.070312 1.03125 -163.4375 -0.28125 -162.875 L -17.9375 -155.015625 L -35.875 -147.453125 C -40.175781 -145.585938 -44.472656 -143.71875 -48.765625 -141.84375 C -53.066406 -139.976562 -57.367188 -138.015625 -61.671875 -135.953125 L -63.921875 -134.84375 C -62.984375 -134.28125 -62.140625 -133.8125 -61.390625 -133.4375 C -60.640625 -133.0625 -59.894531 -132.6875 -59.15625 -132.3125 C -52.050781 -129.132812 -44.898438 -125.863281 -37.703125 -122.5 C -30.503906 -119.132812 -23.359375 -115.863281 -16.265625 -112.6875 C -15.515625 -112.3125 -13.96875 -111.65625 -11.625 -110.71875 C -9.289062 -109.789062 -6.957031 -108.859375 -4.625 -107.921875 C -2.289062 -106.992188 -0.75 -106.34375 0 -105.96875 Z M -183.609375 -237.15625 L -184.453125 -238.84375 L -185.578125 -238.5625 C -185.203125 -238.1875 -184.828125 -237.625 -184.453125 -236.875 C -184.265625 -236.875 -184.125 -236.921875 -184.03125 -237.015625 C -183.9375 -237.109375 -183.796875 -237.15625 -183.609375 -237.15625 Z M -179.96875 -239.125 C -180.15625 -241.175781 -181.179688 -241.546875 -183.046875 -240.234375 C -182.304688 -240.046875 -181.75 -239.859375 -181.375 -239.671875 C -181 -239.492188 -180.53125 -239.3125 -179.96875 -239.125 Z M -179.125 -39.8125 C -179.125 -41.675781 -179.6875 -42.609375 -180.8125 -42.609375 L -181.375 -41.765625 C -180.625 -41.015625 -179.875 -40.363281 -179.125 -39.8125 Z M -173.25 -230.984375 C -174.738281 -230.984375 -175.765625 -231.078125 -176.328125 -231.265625 C -176.328125 -229.960938 -176.234375 -229.21875 -176.046875 -229.03125 C -175.296875 -228.28125 -174.363281 -228.929688 -173.25 -230.984375 Z M -171.28125 -41.203125 L -173.515625 -45.40625 C -173.703125 -45.226562 -173.890625 -45.140625 -174.078125 -45.140625 C -174.265625 -44.390625 -174.359375 -43.546875 -174.359375 -42.609375 C -174.359375 -41.671875 -174.453125 -40.644531 -174.640625 -39.53125 C -173.890625 -39.90625 -173.28125 -40.226562 -172.8125 -40.5 C -172.351562 -40.78125 -171.84375 -41.015625 -171.28125 -41.203125 Z M -167.640625 -46.25 C -167.453125 -47.75 -167.773438 -48.6875 -168.609375 -49.0625 C -169.453125 -49.4375 -170.4375 -49.804688 -171.5625 -50.171875 C -171.5625 -48.679688 -171.140625 -47.75 -170.296875 -47.375 C -169.453125 -47 -168.566406 -46.625 -167.640625 -46.25 Z M -166.234375 -35.609375 L -167.640625 -38.6875 C -167.640625 -38.6875 -168.007812 -38.5 -168.75 -38.125 L -167.078125 -35.046875 Z M -162.59375 -236.59375 C -164.082031 -236.21875 -165.296875 -236.03125 -166.234375 -236.03125 C -166.421875 -235.84375 -166.515625 -235.5625 -166.515625 -235.1875 C -165.765625 -235.1875 -165.0625 -235.140625 -164.40625 -235.046875 C -163.757812 -234.960938 -163.15625 -235.476562 -162.59375 -236.59375 Z M -163.4375 -220.625 C -163.800781 -220.8125 -164.125 -220.90625 -164.40625 -220.90625 C -164.6875 -220.90625 -165.015625 -220.992188 -165.390625 -221.171875 C -165.390625 -220.992188 -165.4375 -220.8125 -165.53125 -220.625 C -165.625 -220.4375 -165.671875 -220.34375 -165.671875 -220.34375 C -165.484375 -220.15625 -165.203125 -220.015625 -164.828125 -219.921875 C -164.453125 -219.828125 -164.082031 -219.6875 -163.71875 -219.5 Z M -160.34375 -42.609375 L -162.3125 -46.25 C -163.25 -44.570312 -162.59375 -43.359375 -160.34375 -42.609375 Z M -155.015625 -228.75 L -161.46875 -230.15625 C -161.28125 -229.78125 -161.09375 -229.359375 -160.90625 -228.890625 C -160.71875 -228.421875 -160.53125 -228.1875 -160.34375 -228.1875 C -159.59375 -228.1875 -158.75 -228.09375 -157.8125 -227.90625 C -156.882812 -227.71875 -155.953125 -228 -155.015625 -228.75 Z M -154.1875 -231.546875 L -155.015625 -233.796875 L -155.859375 -233.796875 L -155.015625 -231.265625 C -154.828125 -231.453125 -154.550781 -231.546875 -154.1875 -231.546875 Z M -144.65625 -226.21875 C -144.65625 -226.59375 -144.789062 -226.921875 -145.0625 -227.203125 C -145.34375 -227.484375 -145.578125 -227.90625 -145.765625 -228.46875 C -146.890625 -226.78125 -147.734375 -225.378906 -148.296875 -224.265625 C -146.046875 -224.265625 -144.832031 -224.914062 -144.65625 -226.21875 Z M -145.484375 -44.296875 L -146.609375 -44.296875 L -146.609375 -42.609375 C -146.609375 -42.421875 -146.328125 -42.328125 -145.765625 -42.328125 C -145.765625 -42.703125 -145.71875 -43.03125 -145.625 -43.3125 C -145.53125 -43.59375 -145.484375 -43.921875 -145.484375 -44.296875 Z M -138.765625 -59.703125 C -139.328125 -60.078125 -139.835938 -60.59375 -140.296875 -61.25 C -140.765625 -61.90625 -141.5625 -62.046875 -142.6875 -61.671875 L -141.28125 -59.421875 C -141.65625 -59.242188 -142.125 -59.015625 -142.6875 -58.734375 C -143.25 -58.453125 -143.8125 -58.125 -144.375 -57.75 C -142.875 -57 -141.703125 -56.859375 -140.859375 -57.328125 C -140.023438 -57.796875 -139.328125 -58.585938 -138.765625 -59.703125 Z M -139.046875 -218.375 C -139.609375 -218.1875 -140.117188 -217.90625 -140.578125 -217.53125 C -141.046875 -217.15625 -141.46875 -216.78125 -141.84375 -216.40625 C -141.09375 -216.40625 -140.390625 -216.5 -139.734375 -216.6875 C -139.085938 -216.875 -138.859375 -217.4375 -139.046875 -218.375 Z M -133.15625 -221.734375 C -131.84375 -222.296875 -131.84375 -223.046875 -133.15625 -223.984375 C -134.09375 -223.609375 -134.976562 -223.234375 -135.8125 -222.859375 C -136.65625 -222.484375 -137.546875 -222.015625 -138.484375 -221.453125 C -138.671875 -221.265625 -138.765625 -220.890625 -138.765625 -220.328125 C -138.765625 -219.773438 -138.859375 -219.21875 -139.046875 -218.65625 C -136.617188 -219.59375 -134.65625 -220.617188 -133.15625 -221.734375 Z M -131.46875 -210.25 C -131.84375 -210.625 -132.21875 -210.90625 -132.59375 -211.09375 C -132.96875 -211.28125 -133.34375 -211.460938 -133.71875 -211.640625 C -133.71875 -211.640625 -133.90625 -211.457031 -134.28125 -211.09375 C -134.09375 -210.90625 -133.953125 -210.71875 -133.859375 -210.53125 C -133.765625 -210.34375 -133.53125 -210.15625 -133.15625 -209.96875 C -132.96875 -209.78125 -132.5 -209.6875 -131.75 -209.6875 C -131.75 -210.0625 -131.65625 -210.25 -131.46875 -210.25 Z M -128.671875 -221.171875 C -128.859375 -221.359375 -128.953125 -221.640625 -128.953125 -222.015625 C -130.078125 -221.640625 -130.726562 -221.269531 -130.90625 -220.90625 C -131.28125 -220.15625 -131.515625 -219.453125 -131.609375 -218.796875 C -131.703125 -218.140625 -131.285156 -217.53125 -130.359375 -216.96875 Z M -129.234375 -55.78125 C -129.234375 -55.96875 -129.328125 -56.15625 -129.515625 -56.34375 C -129.703125 -56.53125 -129.890625 -56.71875 -130.078125 -56.90625 C -130.628906 -56.15625 -130.90625 -55.59375 -130.90625 -55.21875 C -130.90625 -55.03125 -130.535156 -54.753906 -129.796875 -54.390625 C -129.796875 -54.753906 -129.703125 -55.03125 -129.515625 -55.21875 C -129.328125 -55.40625 -129.234375 -55.59375 -129.234375 -55.78125 Z M -124.1875 -214.171875 C -124.1875 -214.359375 -124.46875 -214.734375 -125.03125 -215.296875 L -125.875 -213.890625 L -125.03125 -213.328125 C -124.46875 -213.890625 -124.1875 -214.171875 -124.1875 -214.171875 Z M -120.828125 -215.015625 C -121.191406 -216.128906 -121.703125 -216.828125 -122.359375 -217.109375 C -123.015625 -217.390625 -123.71875 -217.625 -124.46875 -217.8125 C -124.28125 -216.507812 -123.859375 -215.8125 -123.203125 -215.71875 C -122.546875 -215.625 -121.753906 -215.390625 -120.828125 -215.015625 Z M -116.34375 -201 C -116.34375 -201.1875 -116.382812 -201.328125 -116.46875 -201.421875 C -116.5625 -201.515625 -116.609375 -201.65625 -116.609375 -201.84375 C -117.359375 -201.84375 -117.921875 -201.75 -118.296875 -201.5625 C -118.109375 -201.375 -118.015625 -201.09375 -118.015625 -200.71875 C -117.828125 -200.71875 -117.59375 -200.765625 -117.3125 -200.859375 C -117.03125 -200.953125 -116.707031 -201 -116.34375 -201 Z M -113.8125 -202.953125 L -116.34375 -206.328125 C -116.34375 -204.453125 -116.25 -203.375 -116.0625 -203.09375 C -115.875 -202.8125 -115.125 -202.765625 -113.8125 -202.953125 Z M -114.375 -67.28125 C -114.75 -67.28125 -115.03125 -67.375 -115.21875 -67.5625 C -115.21875 -67.1875 -115.265625 -66.8125 -115.359375 -66.4375 C -115.453125 -66.0625 -115.5 -65.6875 -115.5 -65.3125 C -115.3125 -65.3125 -115.171875 -65.265625 -115.078125 -65.171875 C -114.984375 -65.078125 -114.9375 -65.03125 -114.9375 -65.03125 C -114.75 -65.40625 -114.609375 -65.78125 -114.515625 -66.15625 C -114.421875 -66.53125 -114.375 -66.90625 -114.375 -67.28125 Z M -110.453125 -209.125 C -111.378906 -210.988281 -112.3125 -211.175781 -113.25 -209.6875 C -112.875 -209.5 -112.5 -209.40625 -112.125 -209.40625 C -111.757812 -209.40625 -111.203125 -209.3125 -110.453125 -209.125 Z M -109.046875 -206.328125 L -109.609375 -206.875 L -111.296875 -205.203125 C -111.296875 -205.203125 -111.296875 -205.15625 -111.296875 -205.0625 C -111.296875 -204.96875 -111.203125 -204.828125 -111.015625 -204.640625 C -110.828125 -204.828125 -110.640625 -204.875 -110.453125 -204.78125 C -110.265625 -204.6875 -110.078125 -204.734375 -109.890625 -204.921875 C -109.703125 -205.109375 -109.5625 -205.34375 -109.46875 -205.625 C -109.375 -205.90625 -109.234375 -206.140625 -109.046875 -206.328125 Z M -109.046875 -60.828125 C -109.046875 -61.015625 -109.421875 -61.484375 -110.171875 -62.234375 C -110.921875 -61.484375 -111.203125 -61.015625 -111.015625 -60.828125 C -111.015625 -60.265625 -110.734375 -59.984375 -110.171875 -59.984375 C -109.421875 -59.984375 -109.046875 -60.265625 -109.046875 -60.828125 Z M -105.125 -64.1875 C -105.5 -63.632812 -105.914062 -63.125 -106.375 -62.65625 C -106.84375 -62.1875 -107.265625 -61.765625 -107.640625 -61.390625 C -106.710938 -61.578125 -106.15625 -61.765625 -105.96875 -61.953125 C -105.78125 -62.140625 -105.5 -62.882812 -105.125 -64.1875 Z M -104 -140.4375 C -104 -140.4375 -104.046875 -140.484375 -104.140625 -140.578125 C -104.234375 -140.671875 -104.28125 -140.8125 -104.28125 -141 C -105.78125 -140.625 -106.804688 -140.253906 -107.359375 -139.890625 C -107.546875 -139.703125 -107.640625 -139.140625 -107.640625 -138.203125 C -106.710938 -137.828125 -106.15625 -137.734375 -105.96875 -137.921875 C -105.59375 -138.296875 -105.265625 -138.71875 -104.984375 -139.1875 C -104.703125 -139.65625 -104.375 -140.070312 -104 -140.4375 Z M -102.59375 -200.15625 C -103.34375 -201.28125 -104 -202.117188 -104.5625 -202.671875 L -105.40625 -202.109375 C -104.65625 -201.367188 -104 -200.4375 -103.4375 -199.3125 Z M -102.046875 -69.515625 C -101.109375 -71.015625 -101.195312 -72.046875 -102.3125 -72.609375 C -103.4375 -71.671875 -103.347656 -70.640625 -102.046875 -69.515625 Z M -98.109375 -77.9375 C -98.484375 -78.300781 -98.953125 -78.484375 -99.515625 -78.484375 C -99.515625 -78.484375 -99.5625 -78.390625 -99.65625 -78.203125 C -99.75 -78.023438 -99.796875 -77.84375 -99.796875 -77.65625 C -99.796875 -76.90625 -99.703125 -76.4375 -99.515625 -76.25 C -99.328125 -76.25 -99.046875 -76.4375 -98.671875 -76.8125 C -98.296875 -77.1875 -98.109375 -77.5625 -98.109375 -77.9375 Z M -93.90625 -137.078125 C -95.21875 -137.828125 -96.195312 -137.875 -96.84375 -137.21875 C -97.5 -136.5625 -98.015625 -135.863281 -98.390625 -135.125 C -99.703125 -132.5 -98.957031 -130.066406 -96.15625 -127.828125 C -96.53125 -129.703125 -96.71875 -131.429688 -96.71875 -133.015625 C -96.71875 -134.609375 -95.78125 -135.960938 -93.90625 -137.078125 Z M -92.515625 -202.953125 C -93.253906 -203.890625 -94.1875 -204.5 -95.3125 -204.78125 C -96.4375 -205.0625 -96.8125 -206.039062 -96.4375 -207.71875 C -97.363281 -206.414062 -97.734375 -205.484375 -97.546875 -204.921875 C -96.617188 -202.867188 -94.941406 -202.210938 -92.515625 -202.953125 Z M -89.140625 -128.109375 L -90.828125 -132.59375 L -91.953125 -132.3125 C -91.765625 -131.9375 -91.671875 -131.515625 -91.671875 -131.046875 C -91.671875 -130.585938 -91.578125 -130.078125 -91.390625 -129.515625 C -91.390625 -129.140625 -91.34375 -128.71875 -91.25 -128.25 C -91.15625 -127.78125 -91.015625 -127.265625 -90.828125 -126.703125 C -89.703125 -127.453125 -89.140625 -127.921875 -89.140625 -128.109375 Z M -88.578125 -187.546875 C -88.953125 -187.722656 -89.328125 -188 -89.703125 -188.375 L -91.671875 -185.578125 L -91.109375 -185.015625 Z M -88.296875 -144.65625 C -89.421875 -144.65625 -90.265625 -144.5625 -90.828125 -144.375 L -90.828125 -143.53125 C -89.703125 -143.53125 -88.953125 -143.4375 -88.578125 -143.25 C -88.578125 -143.625 -88.53125 -143.90625 -88.4375 -144.09375 C -88.34375 -144.28125 -88.296875 -144.46875 -88.296875 -144.65625 Z M -86.90625 -73.171875 C -87.28125 -73.910156 -87.695312 -74.5625 -88.15625 -75.125 C -88.625 -75.6875 -89.046875 -76.25 -89.421875 -76.8125 C -89.796875 -76.8125 -90.078125 -76.71875 -90.265625 -76.53125 L -90.265625 -72.890625 C -89.515625 -72.890625 -88.90625 -72.9375 -88.4375 -73.03125 C -87.976562 -73.125 -87.46875 -73.171875 -86.90625 -73.171875 Z M -82.140625 -70.078125 L -82.140625 -74.28125 C -83.253906 -74.28125 -83.90625 -73.90625 -84.09375 -73.15625 C -84.28125 -72.414062 -84.46875 -71.578125 -84.65625 -70.640625 C -84.09375 -70.453125 -83.625 -70.359375 -83.25 -70.359375 C -82.882812 -70.359375 -82.515625 -70.265625 -82.140625 -70.078125 Z M -80.453125 -144.921875 L -84.375 -145.484375 C -83.257812 -144.742188 -82.5625 -144.328125 -82.28125 -144.234375 C -82 -144.140625 -81.390625 -144.367188 -80.453125 -144.921875 Z M -78.765625 -149.96875 C -79.703125 -149.96875 -80.59375 -149.96875 -81.4375 -149.96875 C -82.28125 -149.96875 -83.070312 -150.0625 -83.8125 -150.25 C -83.625 -148.945312 -83.296875 -148.25 -82.828125 -148.15625 C -82.367188 -148.0625 -81.015625 -148.664062 -78.765625 -149.96875 Z M -81.296875 -133.15625 C -81.484375 -133.53125 -81.671875 -133.90625 -81.859375 -134.28125 C -82.046875 -134.65625 -82.234375 -134.9375 -82.421875 -135.125 L -83.25 -134.5625 C -83.070312 -134.375 -82.890625 -134.09375 -82.703125 -133.71875 C -82.515625 -133.34375 -82.234375 -132.96875 -81.859375 -132.59375 Z M -80.453125 -185.015625 C -81.015625 -186.515625 -81.945312 -186.328125 -83.25 -184.453125 C -82.882812 -184.453125 -82.46875 -184.40625 -82 -184.3125 C -81.53125 -184.21875 -81.109375 -184.171875 -80.734375 -184.171875 C -80.734375 -184.171875 -80.6875 -184.265625 -80.59375 -184.453125 C -80.5 -184.640625 -80.453125 -184.828125 -80.453125 -185.015625 Z M -81.015625 -84.09375 C -80.828125 -84.28125 -81.109375 -84.75 -81.859375 -85.5 L -82.984375 -83.8125 C -82.984375 -83.625 -82.84375 -83.4375 -82.5625 -83.25 C -82.28125 -83.070312 -82.046875 -82.890625 -81.859375 -82.703125 C -81.671875 -83.066406 -81.484375 -83.34375 -81.296875 -83.53125 C -81.109375 -83.71875 -81.015625 -83.90625 -81.015625 -84.09375 Z M -80.171875 -124.75 C -79.421875 -126.238281 -79.09375 -127.125 -79.1875 -127.40625 C -79.28125 -127.6875 -79.890625 -128.015625 -81.015625 -128.390625 C -80.828125 -127.828125 -80.6875 -127.3125 -80.59375 -126.84375 C -80.5 -126.375 -80.359375 -125.675781 -80.171875 -124.75 Z M -77.09375 -136.515625 L -79.328125 -140.4375 C -79.515625 -138.945312 -79.515625 -138.015625 -79.328125 -137.640625 C -79.140625 -137.265625 -78.394531 -136.890625 -77.09375 -136.515625 Z M -74 -138.203125 C -74.375 -139.503906 -74.65625 -140.296875 -74.84375 -140.578125 C -75.03125 -140.859375 -75.6875 -141.09375 -76.8125 -141.28125 C -76.625 -139.789062 -75.6875 -138.765625 -74 -138.203125 Z M -73.453125 -188.65625 C -74.003906 -187.726562 -74.515625 -186.984375 -74.984375 -186.421875 C -75.453125 -185.859375 -75.5 -185.015625 -75.125 -183.890625 C -74.1875 -184.453125 -73.625 -185.109375 -73.4375 -185.859375 C -73.257812 -186.609375 -73.265625 -187.539062 -73.453125 -188.65625 Z M -73.71875 -152.21875 C -75.21875 -151.09375 -75.734375 -149.96875 -75.265625 -148.84375 C -74.796875 -147.726562 -74.65625 -146.515625 -74.84375 -145.203125 C -73.539062 -146.328125 -73.023438 -147.445312 -73.296875 -148.5625 C -73.578125 -149.6875 -73.71875 -150.90625 -73.71875 -152.21875 Z M -73.171875 -87.75 L -74 -89.984375 C -74 -90.171875 -74.46875 -90.265625 -75.40625 -90.265625 C -75.21875 -89.703125 -74.984375 -89.1875 -74.703125 -88.71875 C -74.421875 -88.25 -74.09375 -87.832031 -73.71875 -87.46875 C -73.71875 -87.46875 -73.671875 -87.515625 -73.578125 -87.609375 C -73.492188 -87.703125 -73.359375 -87.75 -73.171875 -87.75 Z M -69.515625 -142.40625 C -68.773438 -143.34375 -68.492188 -144.179688 -68.671875 -144.921875 C -68.859375 -145.671875 -69.234375 -146.421875 -69.796875 -147.171875 L -72.890625 -144.921875 C -72.140625 -144.742188 -71.53125 -144.65625 -71.0625 -144.65625 C -70.59375 -144.65625 -70.171875 -144.65625 -69.796875 -144.65625 C -69.796875 -144.28125 -69.75 -143.90625 -69.65625 -143.53125 C -69.5625 -143.15625 -69.515625 -142.78125 -69.515625 -142.40625 Z M -68.125 -180.53125 C -69.050781 -180.34375 -69.84375 -180.25 -70.5 -180.25 C -71.15625 -180.25 -71.859375 -180.25 -72.609375 -180.25 C -72.421875 -179.5 -72.328125 -178.890625 -72.328125 -178.421875 C -72.328125 -177.960938 -72.234375 -177.453125 -72.046875 -176.890625 C -70.921875 -177.078125 -69.984375 -177.398438 -69.234375 -177.859375 C -68.492188 -178.328125 -68.125 -179.21875 -68.125 -180.53125 Z M -68.40625 -157.265625 L -71.203125 -160.625 C -71.578125 -158.757812 -71.578125 -157.6875 -71.203125 -157.40625 C -70.828125 -157.125 -69.894531 -157.078125 -68.40625 -157.265625 Z M -67.5625 -93.625 C -68.125 -95.125 -68.960938 -95.59375 -70.078125 -95.03125 C -70.078125 -93.53125 -69.238281 -93.0625 -67.5625 -93.625 Z M -65.59375 -174.359375 C -65.59375 -174.546875 -65.6875 -174.734375 -65.875 -174.921875 C -66.0625 -175.109375 -66.25 -175.109375 -66.4375 -174.921875 C -67.9375 -174.734375 -68.21875 -173.894531 -67.28125 -172.40625 C -65.78125 -172.78125 -65.21875 -173.429688 -65.59375 -174.359375 Z M -62.234375 -89.703125 C -61.109375 -90.453125 -61.109375 -91.203125 -62.234375 -91.953125 C -63.171875 -91.578125 -64.007812 -91.25 -64.75 -90.96875 C -65.5 -90.6875 -66.25 -90.359375 -67 -89.984375 L -67 -88.859375 C -66.25 -88.859375 -65.453125 -88.90625 -64.609375 -89 C -63.773438 -89.09375 -62.984375 -89.328125 -62.234375 -89.703125 Z M -61.109375 -190.34375 C -61.484375 -191.28125 -62.046875 -191.9375 -62.796875 -192.3125 C -63.910156 -192.3125 -64.65625 -191.9375 -65.03125 -191.1875 C -65.40625 -190.625 -65.59375 -189.96875 -65.59375 -189.21875 C -65.59375 -188.46875 -65.59375 -187.816406 -65.59375 -187.265625 C -65.40625 -187.078125 -65.21875 -186.984375 -65.03125 -186.984375 C -64.84375 -186.984375 -64.65625 -186.890625 -64.46875 -186.703125 C -64.101562 -187.078125 -63.828125 -187.679688 -63.640625 -188.515625 C -63.453125 -189.359375 -62.890625 -189.5 -61.953125 -188.9375 C -61.765625 -189.3125 -61.53125 -189.59375 -61.25 -189.78125 C -60.96875 -189.96875 -60.921875 -190.15625 -61.109375 -190.34375 Z M -60.546875 -162.3125 L -63.921875 -157.546875 C -63.546875 -157.359375 -63.125 -157.125 -62.65625 -156.84375 C -62.1875 -156.5625 -61.578125 -156.140625 -60.828125 -155.578125 C -61.203125 -157.078125 -61.15625 -158.289062 -60.6875 -159.21875 C -60.21875 -160.15625 -60.171875 -161.1875 -60.546875 -162.3125 Z M -61.109375 -82.703125 C -61.484375 -83.066406 -61.859375 -83.578125 -62.234375 -84.234375 C -62.609375 -84.890625 -62.984375 -85.59375 -63.359375 -86.34375 C -63.910156 -84.101562 -63.535156 -82.703125 -62.234375 -82.140625 C -61.859375 -82.140625 -61.484375 -82.328125 -61.109375 -82.703125 Z M -61.390625 -99.234375 C -61.578125 -100.171875 -61.8125 -101.007812 -62.09375 -101.75 C -62.375 -102.5 -62.609375 -103.25 -62.796875 -104 C -62.984375 -103.8125 -63.265625 -103.71875 -63.640625 -103.71875 C -63.453125 -102.226562 -63.265625 -101.296875 -63.078125 -100.921875 C -62.890625 -100.546875 -62.328125 -99.984375 -61.390625 -99.234375 Z M -59.703125 -112.96875 C -59.703125 -112.96875 -59.65625 -113.0625 -59.5625 -113.25 C -59.46875 -113.4375 -59.515625 -113.625 -59.703125 -113.8125 C -60.640625 -114.9375 -61.859375 -114.65625 -63.359375 -112.96875 Z M -57.75 -109.046875 C -58.5 -108.671875 -59.054688 -108.4375 -59.421875 -108.34375 C -59.796875 -108.25 -60.078125 -108.109375 -60.265625 -107.921875 C -60.265625 -107.546875 -59.984375 -106.894531 -59.421875 -105.96875 C -59.054688 -106.53125 -58.5 -107.554688 -57.75 -109.046875 Z M -56.0625 -115.78125 C -56.4375 -114.84375 -56.765625 -114.046875 -57.046875 -113.390625 C -57.328125 -112.734375 -57.5625 -112.128906 -57.75 -111.578125 C -57.75 -111.203125 -57.5625 -111.015625 -57.1875 -111.015625 C -56.625 -111.566406 -56.203125 -112.171875 -55.921875 -112.828125 C -55.640625 -113.484375 -55.6875 -114.46875 -56.0625 -115.78125 Z M -52.421875 -116.890625 C -52.796875 -118.015625 -53.171875 -119.046875 -53.546875 -119.984375 L -56.90625 -118.015625 C -55.59375 -117.453125 -54.472656 -116.894531 -53.546875 -116.34375 C -53.546875 -116.34375 -53.171875 -116.523438 -52.421875 -116.890625 Z M -50.171875 -105.125 C -52.421875 -106.613281 -53.867188 -107.359375 -54.515625 -107.359375 C -55.171875 -107.359375 -55.875 -106.332031 -56.625 -104.28125 C -55.5 -105.21875 -54.375 -105.125 -53.25 -104 C -52.132812 -102.875 -51.109375 -103.25 -50.171875 -105.125 Z M -51.578125 -175.203125 C -51.578125 -175.390625 -51.671875 -175.578125 -51.859375 -175.765625 C -52.046875 -175.953125 -52.234375 -176.140625 -52.421875 -176.328125 C -52.796875 -175.578125 -52.984375 -175.203125 -52.984375 -175.203125 C -52.984375 -174.828125 -52.703125 -174.453125 -52.140625 -174.078125 C -52.140625 -174.265625 -52.046875 -174.453125 -51.859375 -174.640625 C -51.671875 -174.828125 -51.578125 -175.015625 -51.578125 -175.203125 Z M -45.96875 -173.796875 L -46.8125 -180.25 C -48.5 -180.0625 -49.15625 -179.359375 -48.78125 -178.140625 C -48.40625 -176.929688 -49.054688 -176.140625 -50.734375 -175.765625 C -49.804688 -175.390625 -49.015625 -175.0625 -48.359375 -174.78125 C -47.703125 -174.5 -46.90625 -174.171875 -45.96875 -173.796875 Z M -48.78125 -156.421875 C -48.78125 -157.171875 -48.59375 -157.914062 -48.21875 -158.65625 C -47.84375 -159.40625 -48.3125 -160.25 -49.625 -161.1875 L -49.625 -156.421875 Z M -46.25 -100.921875 C -46.4375 -101.296875 -46.671875 -101.617188 -46.953125 -101.890625 C -47.234375 -102.171875 -47.46875 -102.5 -47.65625 -102.875 C -48.03125 -102.5 -48.3125 -102.3125 -48.5 -102.3125 C -48.125 -101.757812 -47.5625 -101.109375 -46.8125 -100.359375 C -46.8125 -100.359375 -46.625 -100.546875 -46.25 -100.921875 Z M -43.453125 -110.734375 C -44.203125 -111.296875 -44.851562 -111.851562 -45.40625 -112.40625 C -45.96875 -112.96875 -46.53125 -113.53125 -47.09375 -114.09375 C -47.84375 -112.59375 -47.84375 -111.09375 -47.09375 -109.59375 C -46.34375 -108.101562 -46.34375 -106.613281 -47.09375 -105.125 L -44.578125 -105.125 C -44.390625 -106.25 -44.203125 -107.273438 -44.015625 -108.203125 C -43.828125 -109.140625 -43.640625 -109.984375 -43.453125 -110.734375 Z M -43.171875 -90.546875 C -43.546875 -92.035156 -44.476562 -92.503906 -45.96875 -91.953125 C -45.78125 -91.390625 -45.59375 -90.78125 -45.40625 -90.125 C -45.226562 -89.46875 -45.046875 -88.859375 -44.859375 -88.296875 C -43.171875 -88.671875 -42.609375 -89.421875 -43.171875 -90.546875 Z M -40.375 -97.828125 C -40.738281 -98.765625 -41.203125 -99.515625 -41.765625 -100.078125 C -42.328125 -100.640625 -42.890625 -100.640625 -43.453125 -100.078125 C -43.828125 -99.515625 -43.875 -99.046875 -43.59375 -98.671875 C -43.3125 -98.296875 -42.984375 -97.921875 -42.609375 -97.546875 C -42.421875 -97.367188 -42.234375 -97.234375 -42.046875 -97.140625 C -41.859375 -97.046875 -41.578125 -96.8125 -41.203125 -96.4375 C -41.015625 -96.8125 -40.828125 -97.085938 -40.640625 -97.265625 C -40.460938 -97.453125 -40.375 -97.640625 -40.375 -97.828125 Z M -40.09375 -89.703125 C -39.90625 -91.941406 -39.945312 -93.296875 -40.21875 -93.765625 C -40.5 -94.234375 -41.578125 -94.65625 -43.453125 -95.03125 Z M -35.609375 -176.046875 C -36.347656 -176.046875 -37.09375 -176.09375 -37.84375 -176.1875 C -38.59375 -176.28125 -39.34375 -176.328125 -40.09375 -176.328125 C -39.15625 -174.828125 -38.40625 -174.078125 -37.84375 -174.078125 C -37.28125 -174.078125 -36.535156 -174.734375 -35.609375 -176.046875 Z M -31.953125 -172.6875 C -33.453125 -172.5 -34.34375 -172.078125 -34.625 -171.421875 C -34.90625 -170.765625 -34.765625 -169.691406 -34.203125 -168.203125 Z M -28.59375 -107.359375 L -28.59375 -108.484375 L -31.953125 -107.640625 C -31.210938 -107.085938 -30.75 -106.8125 -30.5625 -106.8125 C -30 -106.8125 -29.34375 -106.992188 -28.59375 -107.359375 Z M -28.03125 -92.78125 C -28.03125 -93.71875 -28.078125 -94.515625 -28.171875 -95.171875 C -28.265625 -95.828125 -28.3125 -96.53125 -28.3125 -97.28125 L -28.875 -97.828125 C -30.363281 -96.710938 -31.0625 -95.96875 -30.96875 -95.59375 C -30.882812 -95.21875 -29.90625 -94.28125 -28.03125 -92.78125 Z M -26.90625 -170.71875 C -27.09375 -171.09375 -27.28125 -171.375 -27.46875 -171.5625 C -27.65625 -171.75 -27.84375 -171.9375 -28.03125 -172.125 L -28.875 -171.28125 C -28.6875 -171.09375 -28.5 -170.90625 -28.3125 -170.71875 C -28.125 -170.53125 -27.84375 -170.25 -27.46875 -169.875 Z M -26.34375 -167.078125 L -28.03125 -163.71875 C -26.726562 -163.894531 -26.03125 -164.125 -25.9375 -164.40625 C -25.84375 -164.6875 -25.976562 -165.578125 -26.34375 -167.078125 Z M -26.34375 -167.078125 "/></g></g></g></svg>