<svg xmlns="http://www.w3.org/2000/svg" xmlns:xlink="http://www.w3.org/1999/xlink" width="2880" zoomAndPan="magnify" viewBox="0 0 2160 1252.499963" height="1670" preserveAspectRatio="xMidYMid meet" version="1.0"><defs><g/><clipPath id="0befa39a51"><path d="M 19.984375 307.292969 L 657.398438 307.292969 L 657.398438 944.707031 L 19.984375 944.707031 Z M 19.984375 307.292969 " clip-rule="nonzero"/></clipPath><clipPath id="959b47830d"><path d="M 338.691406 307.292969 C 162.675781 307.292969 19.984375 449.984375 19.984375 626 C 19.984375 802.015625 162.675781 944.707031 338.691406 944.707031 C 514.710938 944.707031 657.398438 802.015625 657.398438 626 C 657.398438 449.984375 514.710938 307.292969 338.691406 307.292969 Z M 338.691406 307.292969 " clip-rule="nonzero"/></clipPath></defs><g fill="#ffffff" fill-opacity="1"><g transform="translate(706.866924, 821.388477)"><g><path d="M 574.515625 -368.28125 L 448.765625 2.625 L 378.265625 2.625 L 295.140625 -238.328125 L 212.015625 2.625 L 141.53125 2.625 L 15.78125 -368.28125 L 102.59375 -368.28125 L 178.875 -118.90625 L 261.46875 -369.328125 L 330.921875 -369.328125 L 413.515625 -118.90625 L 489.8125 -368.28125 Z M 574.515625 -368.28125 "/></g></g></g><g fill="#ffffff" fill-opacity="1"><g transform="translate(1297.152105, 821.388477)"><g><path d="M 121.53125 -313.03125 L 37.359375 -313.03125 L 37.359375 -384.0625 L 121.53125 -384.0625 Z M 119.421875 0 L 39.453125 0 L 39.453125 -282 L 119.421875 -282 Z M 119.421875 0 "/></g></g></g><g fill="#ffffff" fill-opacity="1"><g transform="translate(1456.034617, 821.388477)"><g><path d="M 308.828125 0 L 217.28125 0 L 143.625 -115.21875 L 115.75 -85.75 L 115.75 0 L 35.78125 0 L 35.78125 -384.0625 L 115.75 -384.0625 L 115.75 -179.40625 L 209.390625 -282 L 305.140625 -282 L 197.8125 -170.984375 Z M 308.828125 0 "/></g></g></g><g fill="#ffffff" fill-opacity="1"><g transform="translate(1767.486438, 821.388477)"><g><path d="M 339.859375 0 L 33.140625 0 L 33.140625 -61.5625 L 235.703125 -297.25 L 39.453125 -297.25 L 39.453125 -368.28125 L 339.859375 -368.28125 L 339.859375 -306.71875 L 137.3125 -71.03125 L 339.859375 -71.03125 Z M 339.859375 0 "/></g></g></g><g clip-path="url(#0befa39a51)"><g clip-path="url(#959b47830d)"><path fill="#5271ff" d="M 19.984375 307.292969 L 657.398438 307.292969 L 657.398438 944.707031 L 19.984375 944.707031 Z M 19.984375 307.292969 " fill-opacity="1" fill-rule="nonzero"/></g></g><g fill="#ffffff" fill-opacity="1"><g transform="translate(508.750189, 830.428795)"><g><path d="M 0 -160.828125 C 1.414062 -157.140625 1.910156 -153.734375 1.484375 -150.609375 C 1.054688 -147.492188 0.28125 -145.222656 -0.84375 -143.796875 C -10.207031 -139.828125 -21.34375 -135.078125 -34.25 -129.546875 C -47.15625 -124.015625 -60.128906 -118.554688 -73.171875 -113.171875 C -86.222656 -107.785156 -97.285156 -102.960938 -106.359375 -98.703125 C -116.285156 -94.160156 -126.285156 -89.765625 -136.359375 -85.515625 C -146.429688 -81.265625 -156.429688 -77.007812 -166.359375 -72.75 C -177.703125 -67.925781 -188.90625 -63.03125 -199.96875 -58.0625 C -211.03125 -53.101562 -222.234375 -48.070312 -233.578125 -42.96875 C -240.953125 -39.851562 -248.46875 -36.660156 -256.125 -33.390625 C -263.78125 -30.128906 -271.296875 -26.65625 -278.671875 -22.96875 C -280.941406 -21.832031 -283.066406 -20.414062 -285.046875 -18.71875 C -287.035156 -17.019531 -289.023438 -15.460938 -291.015625 -14.046875 L -290.15625 -12.765625 L -295.265625 -12.765625 L -294.40625 -13.609375 C -295.539062 -14.179688 -296.394531 -14.75 -296.96875 -15.3125 C -300.082031 -17.582031 -300.929688 -20.421875 -299.515625 -23.828125 C -298.378906 -26.097656 -297.671875 -28.507812 -297.390625 -31.0625 C -297.109375 -33.613281 -296.96875 -36.304688 -296.96875 -39.140625 C -297.25 -43.398438 -297.316406 -47.65625 -297.171875 -51.90625 C -297.035156 -56.15625 -297.675781 -60.410156 -299.09375 -64.671875 C -299.945312 -67.222656 -299.519531 -69.914062 -297.8125 -72.75 C -296.113281 -75.582031 -293.988281 -77.144531 -291.4375 -77.4375 C -282.363281 -79.132812 -273.710938 -82.039062 -265.484375 -86.15625 C -257.253906 -90.269531 -248.882812 -94.023438 -240.375 -97.421875 C -230.738281 -101.398438 -221.238281 -105.585938 -211.875 -109.984375 C -202.507812 -114.378906 -193.007812 -118.703125 -183.375 -122.953125 L -131.46875 -145.9375 C -128.625 -147.351562 -125.785156 -148.628906 -122.953125 -149.765625 C -120.117188 -150.898438 -117 -152.175781 -113.59375 -153.59375 C -117.28125 -155.570312 -120.753906 -157.34375 -124.015625 -158.90625 C -127.273438 -160.46875 -130.46875 -161.957031 -133.59375 -163.375 C -145.21875 -168.757812 -158.117188 -174.785156 -172.296875 -181.453125 C -186.484375 -188.117188 -199.394531 -194.144531 -211.03125 -199.53125 C -212.726562 -201.800781 -213.71875 -203.71875 -214 -205.28125 C -214.28125 -206.84375 -213.289062 -208.898438 -211.03125 -211.453125 C -206.769531 -213.429688 -201.164062 -215.976562 -194.21875 -219.09375 C -187.269531 -222.21875 -180.320312 -225.335938 -173.375 -228.453125 C -166.425781 -231.578125 -160.820312 -233.992188 -156.5625 -235.703125 C -150.039062 -238.816406 -143.515625 -241.789062 -136.984375 -244.625 C -130.460938 -247.46875 -123.941406 -250.304688 -117.421875 -253.140625 C -117.140625 -253.421875 -116.710938 -253.773438 -116.140625 -254.203125 C -115.578125 -254.628906 -114.867188 -254.984375 -114.015625 -255.265625 C -116.003906 -256.117188 -117.773438 -256.96875 -119.328125 -257.8125 C -120.890625 -258.664062 -122.523438 -259.378906 -124.234375 -259.953125 C -134.441406 -264.773438 -144.648438 -269.597656 -154.859375 -274.421875 C -165.078125 -279.242188 -175.429688 -283.921875 -185.921875 -288.453125 C -198.679688 -294.128906 -211.441406 -299.941406 -224.203125 -305.890625 C -236.972656 -311.847656 -249.738281 -317.804688 -262.5 -323.765625 C -264.488281 -324.617188 -266.40625 -325.539062 -268.25 -326.53125 C -270.09375 -327.53125 -272.003906 -328.453125 -273.984375 -329.296875 C -276.253906 -330.148438 -278.59375 -331.070312 -281 -332.0625 C -283.414062 -333.0625 -285.898438 -333.84375 -288.453125 -334.40625 C -292.421875 -335.539062 -295.398438 -337.597656 -297.390625 -340.578125 C -299.378906 -343.554688 -299.945312 -346.890625 -299.09375 -350.578125 C -297.957031 -354.546875 -297.25 -358.585938 -296.96875 -362.703125 C -296.6875 -366.816406 -296.6875 -371 -296.96875 -375.25 C -297.25 -377.238281 -297.53125 -379.222656 -297.8125 -381.203125 C -298.101562 -383.191406 -298.53125 -385.175781 -299.09375 -387.15625 C -300.507812 -390.5625 -300.226562 -393.539062 -298.25 -396.09375 L -286.75 -395.25 C -283.914062 -392.40625 -280.941406 -390.421875 -277.828125 -389.296875 C -267.328125 -384.179688 -256.613281 -379.140625 -245.6875 -374.171875 C -234.769531 -369.210938 -223.925781 -364.179688 -213.15625 -359.078125 C -201.8125 -353.691406 -190.460938 -348.445312 -179.109375 -343.34375 C -167.765625 -338.238281 -156.421875 -332.988281 -145.078125 -327.59375 L -70.203125 -293.140625 C -63.960938 -290.296875 -57.863281 -287.457031 -51.90625 -284.625 C -45.945312 -281.789062 -39.847656 -278.957031 -33.609375 -276.125 C -28.222656 -273.851562 -22.972656 -271.441406 -17.859375 -268.890625 C -12.753906 -266.335938 -7.507812 -263.925781 -2.125 -261.65625 C -0.707031 -261.082031 0.421875 -258.738281 1.265625 -254.625 C 2.117188 -250.519531 1.554688 -248.039062 -0.421875 -247.1875 L -27.234375 -235.28125 L -54.453125 -223.78125 C -60.984375 -220.945312 -67.507812 -218.113281 -74.03125 -215.28125 C -80.550781 -212.445312 -87.070312 -209.46875 -93.59375 -206.34375 L -97 -204.640625 C -95.582031 -203.785156 -94.304688 -203.078125 -93.171875 -202.515625 C -92.035156 -201.953125 -90.898438 -201.382812 -89.765625 -200.8125 C -78.992188 -195.988281 -68.144531 -191.023438 -57.21875 -185.921875 C -46.300781 -180.816406 -35.453125 -175.851562 -24.671875 -171.03125 C -23.535156 -170.46875 -21.195312 -169.472656 -17.65625 -168.046875 C -14.113281 -166.628906 -10.566406 -165.210938 -7.015625 -163.796875 C -3.472656 -162.378906 -1.132812 -161.390625 0 -160.828125 Z M -278.671875 -359.9375 L -279.953125 -362.484375 L -281.65625 -362.0625 C -281.082031 -361.488281 -280.515625 -360.640625 -279.953125 -359.515625 C -279.660156 -359.515625 -279.441406 -359.582031 -279.296875 -359.71875 C -279.160156 -359.863281 -278.953125 -359.9375 -278.671875 -359.9375 Z M -273.140625 -362.90625 C -273.421875 -366.03125 -274.984375 -366.597656 -277.828125 -364.609375 C -276.691406 -364.328125 -275.835938 -364.046875 -275.265625 -363.765625 C -274.703125 -363.484375 -273.992188 -363.195312 -273.140625 -362.90625 Z M -271.859375 -60.421875 C -271.859375 -63.253906 -272.710938 -64.671875 -274.421875 -64.671875 L -275.265625 -63.390625 C -274.128906 -62.253906 -272.992188 -61.265625 -271.859375 -60.421875 Z M -262.9375 -350.578125 C -265.195312 -350.578125 -266.753906 -350.71875 -267.609375 -351 C -267.609375 -349.007812 -267.46875 -347.875 -267.1875 -347.59375 C -266.050781 -346.457031 -264.632812 -347.453125 -262.9375 -350.578125 Z M -259.953125 -62.546875 L -263.359375 -68.921875 C -263.640625 -68.640625 -263.921875 -68.5 -264.203125 -68.5 C -264.484375 -67.363281 -264.625 -66.085938 -264.625 -64.671875 C -264.625 -63.253906 -264.769531 -61.691406 -265.0625 -59.984375 C -263.925781 -60.554688 -263.003906 -61.050781 -262.296875 -61.46875 C -261.585938 -61.894531 -260.804688 -62.253906 -259.953125 -62.546875 Z M -254.421875 -70.203125 C -254.140625 -72.472656 -254.632812 -73.890625 -255.90625 -74.453125 C -257.1875 -75.023438 -258.675781 -75.59375 -260.375 -76.15625 C -260.375 -73.882812 -259.734375 -72.460938 -258.453125 -71.890625 C -257.179688 -71.328125 -255.835938 -70.765625 -254.421875 -70.203125 Z M -252.296875 -54.03125 L -254.421875 -58.71875 C -254.421875 -58.71875 -254.988281 -58.429688 -256.125 -57.859375 L -253.5625 -53.1875 Z M -246.765625 -359.078125 C -249.035156 -358.515625 -250.878906 -358.234375 -252.296875 -358.234375 C -252.578125 -357.953125 -252.71875 -357.523438 -252.71875 -356.953125 C -251.582031 -356.953125 -250.519531 -356.878906 -249.53125 -356.734375 C -248.539062 -356.597656 -247.617188 -357.378906 -246.765625 -359.078125 Z M -248.046875 -334.828125 C -248.609375 -335.109375 -249.101562 -335.25 -249.53125 -335.25 C -249.957031 -335.25 -250.453125 -335.394531 -251.015625 -335.6875 C -251.015625 -335.394531 -251.082031 -335.109375 -251.21875 -334.828125 C -251.363281 -334.546875 -251.4375 -334.40625 -251.4375 -334.40625 C -251.15625 -334.125 -250.726562 -333.910156 -250.15625 -333.765625 C -249.59375 -333.628906 -249.03125 -333.414062 -248.46875 -333.125 Z M -243.359375 -64.671875 L -246.34375 -70.203125 C -247.757812 -67.648438 -246.765625 -65.804688 -243.359375 -64.671875 Z M -235.28125 -347.171875 L -245.0625 -349.296875 C -244.78125 -348.734375 -244.492188 -348.09375 -244.203125 -347.375 C -243.921875 -346.664062 -243.640625 -346.3125 -243.359375 -346.3125 C -242.222656 -346.3125 -240.945312 -346.171875 -239.53125 -345.890625 C -238.113281 -345.609375 -236.695312 -346.035156 -235.28125 -347.171875 Z M -234 -351.421875 L -235.28125 -354.828125 L -236.546875 -354.828125 L -235.28125 -351 C -234.988281 -351.28125 -234.5625 -351.421875 -234 -351.421875 Z M -219.53125 -343.34375 C -219.53125 -343.90625 -219.742188 -344.398438 -220.171875 -344.828125 C -220.597656 -345.253906 -220.953125 -345.894531 -221.234375 -346.75 C -222.929688 -344.195312 -224.207031 -342.066406 -225.0625 -340.359375 C -221.65625 -340.359375 -219.8125 -341.351562 -219.53125 -343.34375 Z M -220.8125 -67.21875 L -222.515625 -67.21875 L -222.515625 -64.671875 C -222.515625 -64.390625 -222.085938 -64.25 -221.234375 -64.25 C -221.234375 -64.8125 -221.160156 -65.304688 -221.015625 -65.734375 C -220.878906 -66.160156 -220.8125 -66.65625 -220.8125 -67.21875 Z M -210.59375 -90.625 C -211.445312 -91.1875 -212.226562 -91.960938 -212.9375 -92.953125 C -213.644531 -93.953125 -214.851562 -94.164062 -216.5625 -93.59375 L -214.421875 -90.203125 C -214.992188 -89.910156 -215.703125 -89.550781 -216.546875 -89.125 C -217.398438 -88.707031 -218.253906 -88.210938 -219.109375 -87.640625 C -216.835938 -86.503906 -215.0625 -86.289062 -213.78125 -87 C -212.507812 -87.707031 -211.445312 -88.914062 -210.59375 -90.625 Z M -211.03125 -331.421875 C -211.875 -331.140625 -212.648438 -330.710938 -213.359375 -330.140625 C -214.066406 -329.578125 -214.707031 -329.015625 -215.28125 -328.453125 C -214.144531 -328.453125 -213.078125 -328.59375 -212.078125 -328.875 C -211.085938 -329.15625 -210.738281 -330.003906 -211.03125 -331.421875 Z M -202.09375 -336.53125 C -200.101562 -337.382812 -200.101562 -338.519531 -202.09375 -339.9375 C -203.507812 -339.375 -204.851562 -338.804688 -206.125 -338.234375 C -207.40625 -337.671875 -208.753906 -336.960938 -210.171875 -336.109375 C -210.453125 -335.828125 -210.59375 -335.257812 -210.59375 -334.40625 C -210.59375 -333.550781 -210.738281 -332.703125 -211.03125 -331.859375 C -207.34375 -333.273438 -204.363281 -334.832031 -202.09375 -336.53125 Z M -199.53125 -319.09375 C -200.101562 -319.65625 -200.671875 -320.078125 -201.234375 -320.359375 C -201.804688 -320.648438 -202.375 -320.9375 -202.9375 -321.21875 C -202.9375 -321.21875 -203.222656 -320.929688 -203.796875 -320.359375 C -203.503906 -320.078125 -203.285156 -319.796875 -203.140625 -319.515625 C -203.003906 -319.234375 -202.65625 -318.953125 -202.09375 -318.671875 C -201.8125 -318.378906 -201.101562 -318.234375 -199.96875 -318.234375 C -199.96875 -318.804688 -199.820312 -319.09375 -199.53125 -319.09375 Z M -195.28125 -335.6875 C -195.5625 -335.96875 -195.703125 -336.390625 -195.703125 -336.953125 C -197.410156 -336.390625 -198.40625 -335.820312 -198.6875 -335.25 C -199.25 -334.125 -199.601562 -333.0625 -199.75 -332.0625 C -199.894531 -331.070312 -199.253906 -330.148438 -197.828125 -329.296875 Z M -196.140625 -84.671875 C -196.140625 -84.953125 -196.28125 -85.234375 -196.5625 -85.515625 C -196.84375 -85.796875 -197.125 -86.078125 -197.40625 -86.359375 C -198.257812 -85.234375 -198.6875 -84.382812 -198.6875 -83.8125 C -198.6875 -83.53125 -198.117188 -83.101562 -196.984375 -82.53125 C -196.984375 -83.101562 -196.84375 -83.53125 -196.5625 -83.8125 C -196.28125 -84.09375 -196.140625 -84.378906 -196.140625 -84.671875 Z M -188.46875 -325.046875 C -188.46875 -325.328125 -188.894531 -325.894531 -189.75 -326.75 L -191.03125 -324.625 L -189.75 -323.765625 C -188.894531 -324.617188 -188.46875 -325.046875 -188.46875 -325.046875 Z M -183.375 -326.328125 C -183.9375 -328.023438 -184.710938 -329.085938 -185.703125 -329.515625 C -186.703125 -329.941406 -187.769531 -330.296875 -188.90625 -330.578125 C -188.613281 -328.585938 -187.972656 -327.519531 -186.984375 -327.375 C -185.992188 -327.238281 -184.789062 -326.890625 -183.375 -326.328125 Z M -176.5625 -305.046875 C -176.5625 -305.328125 -176.628906 -305.539062 -176.765625 -305.6875 C -176.910156 -305.832031 -176.984375 -306.046875 -176.984375 -306.328125 C -178.117188 -306.328125 -178.972656 -306.1875 -179.546875 -305.90625 C -179.253906 -305.613281 -179.109375 -305.1875 -179.109375 -304.625 C -178.828125 -304.625 -178.472656 -304.691406 -178.046875 -304.828125 C -177.617188 -304.972656 -177.125 -305.046875 -176.5625 -305.046875 Z M -172.734375 -308.03125 L -176.5625 -313.140625 C -176.5625 -310.296875 -176.421875 -308.660156 -176.140625 -308.234375 C -175.859375 -307.816406 -174.722656 -307.75 -172.734375 -308.03125 Z M -173.578125 -102.109375 C -174.148438 -102.109375 -174.578125 -102.25 -174.859375 -102.53125 C -174.859375 -101.96875 -174.925781 -101.398438 -175.0625 -100.828125 C -175.207031 -100.265625 -175.28125 -99.695312 -175.28125 -99.125 C -175 -99.125 -174.785156 -99.050781 -174.640625 -98.90625 C -174.503906 -98.769531 -174.4375 -98.703125 -174.4375 -98.703125 C -174.15625 -99.273438 -173.941406 -99.84375 -173.796875 -100.40625 C -173.648438 -100.976562 -173.578125 -101.546875 -173.578125 -102.109375 Z M -167.625 -317.390625 C -169.039062 -320.222656 -170.460938 -320.503906 -171.890625 -318.234375 C -171.316406 -317.953125 -170.742188 -317.8125 -170.171875 -317.8125 C -169.609375 -317.8125 -168.757812 -317.671875 -167.625 -317.390625 Z M -165.5 -313.140625 L -166.359375 -313.984375 L -168.90625 -311.4375 C -168.90625 -311.4375 -168.90625 -311.363281 -168.90625 -311.21875 C -168.90625 -311.070312 -168.765625 -310.859375 -168.484375 -310.578125 C -168.191406 -310.859375 -167.90625 -310.925781 -167.625 -310.78125 C -167.34375 -310.644531 -167.0625 -310.71875 -166.78125 -311 C -166.5 -311.289062 -166.285156 -311.644531 -166.140625 -312.0625 C -165.992188 -312.488281 -165.78125 -312.847656 -165.5 -313.140625 Z M -165.5 -92.328125 C -165.5 -92.609375 -166.066406 -93.316406 -167.203125 -94.453125 C -168.335938 -93.316406 -168.765625 -92.609375 -168.484375 -92.328125 C -168.484375 -91.472656 -168.054688 -91.046875 -167.203125 -91.046875 C -166.066406 -91.046875 -165.5 -91.472656 -165.5 -92.328125 Z M -159.546875 -97.421875 C -160.109375 -96.578125 -160.742188 -95.800781 -161.453125 -95.09375 C -162.160156 -94.382812 -162.800781 -93.742188 -163.375 -93.171875 C -161.957031 -93.453125 -161.101562 -93.734375 -160.8125 -94.015625 C -160.53125 -94.304688 -160.109375 -95.441406 -159.546875 -97.421875 Z M -157.84375 -213.15625 C -157.84375 -213.15625 -157.910156 -213.222656 -158.046875 -213.359375 C -158.191406 -213.503906 -158.265625 -213.71875 -158.265625 -214 C -160.535156 -213.4375 -162.097656 -212.867188 -162.953125 -212.296875 C -163.234375 -212.015625 -163.375 -211.164062 -163.375 -209.75 C -161.957031 -209.175781 -161.109375 -209.035156 -160.828125 -209.328125 C -160.253906 -209.890625 -159.753906 -210.523438 -159.328125 -211.234375 C -158.898438 -211.941406 -158.40625 -212.582031 -157.84375 -213.15625 Z M -155.71875 -303.78125 C -156.851562 -305.476562 -157.84375 -306.753906 -158.6875 -307.609375 L -159.96875 -306.75 C -158.832031 -305.613281 -157.84375 -304.195312 -157 -302.5 Z M -154.859375 -105.515625 C -153.441406 -107.785156 -153.585938 -109.34375 -155.296875 -110.1875 C -156.992188 -108.769531 -156.847656 -107.210938 -154.859375 -105.515625 Z M -148.90625 -118.28125 C -149.476562 -118.84375 -150.1875 -119.125 -151.03125 -119.125 C -151.03125 -119.125 -151.101562 -118.984375 -151.25 -118.703125 C -151.394531 -118.421875 -151.46875 -118.132812 -151.46875 -117.84375 C -151.46875 -116.71875 -151.320312 -116.007812 -151.03125 -115.71875 C -150.75 -115.71875 -150.328125 -116.003906 -149.765625 -116.578125 C -149.191406 -117.140625 -148.90625 -117.707031 -148.90625 -118.28125 Z M -142.53125 -208.046875 C -144.507812 -209.179688 -145.992188 -209.25 -146.984375 -208.25 C -147.984375 -207.257812 -148.765625 -206.195312 -149.328125 -205.0625 C -151.316406 -201.09375 -150.1875 -197.40625 -145.9375 -194 C -146.5 -196.84375 -146.78125 -199.46875 -146.78125 -201.875 C -146.78125 -204.289062 -145.363281 -206.347656 -142.53125 -208.046875 Z M -140.40625 -308.03125 C -141.53125 -309.445312 -142.941406 -310.367188 -144.640625 -310.796875 C -146.347656 -311.222656 -146.921875 -312.710938 -146.359375 -315.265625 C -147.773438 -313.273438 -148.34375 -311.851562 -148.0625 -311 C -146.644531 -307.882812 -144.09375 -306.894531 -140.40625 -308.03125 Z M -135.296875 -194.4375 L -137.84375 -201.234375 L -139.546875 -200.8125 C -139.265625 -200.25 -139.125 -199.609375 -139.125 -198.890625 C -139.125 -198.179688 -138.984375 -197.40625 -138.703125 -196.5625 C -138.703125 -195.988281 -138.628906 -195.347656 -138.484375 -194.640625 C -138.335938 -193.929688 -138.125 -193.15625 -137.84375 -192.3125 C -136.144531 -193.4375 -135.296875 -194.144531 -135.296875 -194.4375 Z M -134.4375 -284.625 C -135.007812 -284.90625 -135.578125 -285.332031 -136.140625 -285.90625 L -139.125 -281.65625 L -138.265625 -280.796875 Z M -134.015625 -219.53125 C -135.722656 -219.53125 -137 -219.390625 -137.84375 -219.109375 L -137.84375 -217.828125 C -136.144531 -217.828125 -135.007812 -217.6875 -134.4375 -217.40625 C -134.4375 -217.96875 -134.363281 -218.390625 -134.21875 -218.671875 C -134.082031 -218.960938 -134.015625 -219.25 -134.015625 -219.53125 Z M -131.890625 -111.046875 C -132.453125 -112.179688 -133.085938 -113.171875 -133.796875 -114.015625 C -134.515625 -114.867188 -135.15625 -115.722656 -135.71875 -116.578125 C -136.289062 -116.578125 -136.71875 -116.4375 -137 -116.15625 L -137 -110.625 C -135.863281 -110.625 -134.941406 -110.691406 -134.234375 -110.828125 C -133.523438 -110.972656 -132.742188 -111.046875 -131.890625 -111.046875 Z M -124.65625 -106.359375 L -124.65625 -112.75 C -126.351562 -112.75 -127.34375 -112.179688 -127.625 -111.046875 C -127.914062 -109.910156 -128.203125 -108.632812 -128.484375 -107.21875 C -127.628906 -106.925781 -126.921875 -106.78125 -126.359375 -106.78125 C -125.796875 -106.78125 -125.226562 -106.640625 -124.65625 -106.359375 Z M -122.109375 -219.953125 L -128.0625 -220.8125 C -126.363281 -219.675781 -125.300781 -219.035156 -124.875 -218.890625 C -124.445312 -218.753906 -123.523438 -219.109375 -122.109375 -219.953125 Z M -119.546875 -227.625 C -120.960938 -227.625 -122.3125 -227.625 -123.59375 -227.625 C -124.875 -227.625 -126.078125 -227.765625 -127.203125 -228.046875 C -126.921875 -226.054688 -126.425781 -224.988281 -125.71875 -224.84375 C -125.007812 -224.707031 -122.953125 -225.632812 -119.546875 -227.625 Z M -123.375 -202.09375 C -123.664062 -202.65625 -123.953125 -203.21875 -124.234375 -203.78125 C -124.515625 -204.351562 -124.796875 -204.78125 -125.078125 -205.0625 L -126.359375 -204.21875 C -126.078125 -203.9375 -125.789062 -203.507812 -125.5 -202.9375 C -125.21875 -202.375 -124.796875 -201.804688 -124.234375 -201.234375 Z M -122.109375 -280.796875 C -122.953125 -283.066406 -124.367188 -282.785156 -126.359375 -279.953125 C -125.796875 -279.953125 -125.15625 -279.878906 -124.4375 -279.734375 C -123.726562 -279.585938 -123.09375 -279.515625 -122.53125 -279.515625 C -122.53125 -279.515625 -122.457031 -279.65625 -122.3125 -279.9375 C -122.175781 -280.226562 -122.109375 -280.515625 -122.109375 -280.796875 Z M -122.953125 -127.640625 C -122.671875 -127.921875 -123.097656 -128.628906 -124.234375 -129.765625 L -125.9375 -127.203125 C -125.9375 -126.921875 -125.722656 -126.640625 -125.296875 -126.359375 C -124.867188 -126.078125 -124.515625 -125.796875 -124.234375 -125.515625 C -123.953125 -126.078125 -123.664062 -126.5 -123.375 -126.78125 C -123.09375 -127.0625 -122.953125 -127.347656 -122.953125 -127.640625 Z M -121.671875 -189.328125 C -120.546875 -191.597656 -120.050781 -192.941406 -120.1875 -193.359375 C -120.332031 -193.785156 -121.253906 -194.285156 -122.953125 -194.859375 C -122.671875 -194.003906 -122.457031 -193.222656 -122.3125 -192.515625 C -122.175781 -191.804688 -121.960938 -190.742188 -121.671875 -189.328125 Z M -117 -207.203125 L -120.40625 -213.15625 C -120.6875 -210.882812 -120.6875 -209.460938 -120.40625 -208.890625 C -120.125 -208.328125 -118.988281 -207.765625 -117 -207.203125 Z M -112.3125 -209.75 C -112.882812 -211.738281 -113.3125 -212.941406 -113.59375 -213.359375 C -113.875 -213.785156 -114.867188 -214.140625 -116.578125 -214.421875 C -116.296875 -212.160156 -114.875 -210.601562 -112.3125 -209.75 Z M -111.46875 -286.328125 C -112.320312 -284.910156 -113.101562 -283.773438 -113.8125 -282.921875 C -114.519531 -282.078125 -114.585938 -280.800781 -114.015625 -279.09375 C -112.597656 -279.945312 -111.75 -280.941406 -111.46875 -282.078125 C -111.1875 -283.210938 -111.1875 -284.628906 -111.46875 -286.328125 Z M -111.890625 -231.015625 C -114.160156 -229.316406 -114.941406 -227.613281 -114.234375 -225.90625 C -113.523438 -224.207031 -113.3125 -222.367188 -113.59375 -220.390625 C -111.613281 -222.085938 -110.832031 -223.785156 -111.25 -225.484375 C -111.675781 -227.191406 -111.890625 -229.035156 -111.890625 -231.015625 Z M -111.046875 -133.171875 L -112.3125 -136.578125 C -112.3125 -136.859375 -113.023438 -137 -114.453125 -137 C -114.160156 -136.144531 -113.800781 -135.363281 -113.375 -134.65625 C -112.957031 -133.945312 -112.460938 -133.304688 -111.890625 -132.734375 C -111.890625 -132.734375 -111.816406 -132.804688 -111.671875 -132.953125 C -111.535156 -133.097656 -111.328125 -133.171875 -111.046875 -133.171875 Z M -105.515625 -216.125 C -104.378906 -217.539062 -103.953125 -218.816406 -104.234375 -219.953125 C -104.515625 -221.085938 -105.082031 -222.222656 -105.9375 -223.359375 L -110.625 -219.953125 C -109.488281 -219.671875 -108.5625 -219.53125 -107.84375 -219.53125 C -107.132812 -219.53125 -106.5 -219.53125 -105.9375 -219.53125 C -105.9375 -218.96875 -105.863281 -218.398438 -105.71875 -217.828125 C -105.582031 -217.265625 -105.515625 -216.695312 -105.515625 -216.125 Z M -103.390625 -273.984375 C -104.804688 -273.703125 -106.007812 -273.5625 -107 -273.5625 C -107.988281 -273.5625 -109.050781 -273.5625 -110.1875 -273.5625 C -109.90625 -272.425781 -109.765625 -271.503906 -109.765625 -270.796875 C -109.765625 -270.085938 -109.625 -269.3125 -109.34375 -268.46875 C -107.632812 -268.75 -106.210938 -269.242188 -105.078125 -269.953125 C -103.953125 -270.660156 -103.390625 -272.003906 -103.390625 -273.984375 Z M -103.8125 -238.671875 L -108.0625 -243.78125 C -108.632812 -240.945312 -108.632812 -239.316406 -108.0625 -238.890625 C -107.5 -238.460938 -106.082031 -238.390625 -103.8125 -238.671875 Z M -102.53125 -142.09375 C -103.382812 -144.363281 -104.660156 -145.078125 -106.359375 -144.234375 C -106.359375 -141.960938 -105.082031 -141.25 -102.53125 -142.09375 Z M -99.5625 -264.625 C -99.5625 -264.914062 -99.703125 -265.203125 -99.984375 -265.484375 C -100.265625 -265.765625 -100.546875 -265.765625 -100.828125 -265.484375 C -103.097656 -265.203125 -103.523438 -263.925781 -102.109375 -261.65625 C -99.835938 -262.21875 -98.988281 -263.207031 -99.5625 -264.625 Z M -94.453125 -136.140625 C -92.742188 -137.273438 -92.742188 -138.410156 -94.453125 -139.546875 C -95.867188 -138.984375 -97.144531 -138.488281 -98.28125 -138.0625 C -99.414062 -137.632812 -100.550781 -137.140625 -101.6875 -136.578125 L -101.6875 -134.875 C -100.550781 -134.875 -99.34375 -134.941406 -98.0625 -135.078125 C -96.789062 -135.222656 -95.585938 -135.578125 -94.453125 -136.140625 Z M -92.75 -288.875 C -93.3125 -290.300781 -94.160156 -291.296875 -95.296875 -291.859375 C -97.003906 -291.859375 -98.140625 -291.289062 -98.703125 -290.15625 C -99.273438 -289.300781 -99.5625 -288.304688 -99.5625 -287.171875 C -99.5625 -286.046875 -99.5625 -285.054688 -99.5625 -284.203125 C -99.269531 -283.921875 -98.984375 -283.78125 -98.703125 -283.78125 C -98.421875 -283.78125 -98.140625 -283.640625 -97.859375 -283.359375 C -97.285156 -283.921875 -96.859375 -284.835938 -96.578125 -286.109375 C -96.296875 -287.390625 -95.445312 -287.601562 -94.03125 -286.75 C -93.738281 -287.320312 -93.378906 -287.75 -92.953125 -288.03125 C -92.535156 -288.3125 -92.46875 -288.59375 -92.75 -288.875 Z M -91.890625 -246.34375 L -97 -239.109375 C -96.4375 -238.816406 -95.800781 -238.457031 -95.09375 -238.03125 C -94.382812 -237.613281 -93.460938 -236.976562 -92.328125 -236.125 C -92.890625 -238.394531 -92.816406 -240.238281 -92.109375 -241.65625 C -91.398438 -243.070312 -91.328125 -244.632812 -91.890625 -246.34375 Z M -92.75 -125.515625 C -93.3125 -126.078125 -93.875 -126.851562 -94.4375 -127.84375 C -95.007812 -128.84375 -95.582031 -129.910156 -96.15625 -131.046875 C -97 -127.640625 -96.429688 -125.507812 -94.453125 -124.65625 C -93.878906 -124.65625 -93.3125 -124.941406 -92.75 -125.515625 Z M -93.171875 -150.609375 C -93.453125 -152.023438 -93.804688 -153.300781 -94.234375 -154.4375 C -94.660156 -155.570312 -95.015625 -156.707031 -95.296875 -157.84375 C -95.585938 -157.5625 -96.015625 -157.421875 -96.578125 -157.421875 C -96.296875 -155.148438 -96.007812 -153.726562 -95.71875 -153.15625 C -95.4375 -152.59375 -94.585938 -151.742188 -93.171875 -150.609375 Z M -90.625 -171.453125 C -90.625 -171.453125 -90.550781 -171.59375 -90.40625 -171.875 C -90.269531 -172.164062 -90.34375 -172.453125 -90.625 -172.734375 C -92.039062 -174.429688 -93.882812 -174.003906 -96.15625 -171.453125 Z M -87.640625 -165.5 C -88.773438 -164.9375 -89.625 -164.582031 -90.1875 -164.4375 C -90.757812 -164.289062 -91.1875 -164.078125 -91.46875 -163.796875 C -91.46875 -163.234375 -91.046875 -162.242188 -90.203125 -160.828125 C -89.628906 -161.671875 -88.773438 -163.226562 -87.640625 -165.5 Z M -85.09375 -175.71875 C -85.65625 -174.289062 -86.148438 -173.082031 -86.578125 -172.09375 C -87.003906 -171.101562 -87.359375 -170.179688 -87.640625 -169.328125 C -87.640625 -168.765625 -87.359375 -168.484375 -86.796875 -168.484375 C -85.941406 -169.328125 -85.300781 -170.242188 -84.875 -171.234375 C -84.445312 -172.234375 -84.519531 -173.726562 -85.09375 -175.71875 Z M -79.5625 -177.40625 C -80.125 -179.113281 -80.691406 -180.675781 -81.265625 -182.09375 L -86.359375 -179.109375 C -84.378906 -178.265625 -82.679688 -177.414062 -81.265625 -176.5625 C -81.265625 -176.5625 -80.695312 -176.84375 -79.5625 -177.40625 Z M -76.15625 -159.546875 C -79.5625 -161.816406 -81.757812 -162.953125 -82.75 -162.953125 C -83.738281 -162.953125 -84.800781 -161.390625 -85.9375 -158.265625 C -84.238281 -159.679688 -82.535156 -159.539062 -80.828125 -157.84375 C -79.128906 -156.144531 -77.570312 -156.710938 -76.15625 -159.546875 Z M -78.28125 -265.90625 C -78.28125 -266.1875 -78.421875 -266.46875 -78.703125 -266.75 C -78.992188 -267.039062 -79.28125 -267.328125 -79.5625 -267.609375 C -80.125 -266.472656 -80.40625 -265.90625 -80.40625 -265.90625 C -80.40625 -265.34375 -79.984375 -264.773438 -79.140625 -264.203125 C -79.140625 -264.484375 -78.992188 -264.765625 -78.703125 -265.046875 C -78.421875 -265.335938 -78.28125 -265.625 -78.28125 -265.90625 Z M -69.78125 -263.78125 L -71.046875 -273.5625 C -73.597656 -273.28125 -74.585938 -272.21875 -74.015625 -270.375 C -73.453125 -268.53125 -74.445312 -267.328125 -77 -266.765625 C -75.582031 -266.191406 -74.378906 -265.691406 -73.390625 -265.265625 C -72.398438 -264.835938 -71.195312 -264.34375 -69.78125 -263.78125 Z M -74.03125 -237.40625 C -74.03125 -238.539062 -73.742188 -239.675781 -73.171875 -240.8125 C -72.609375 -241.945312 -73.320312 -243.222656 -75.3125 -244.640625 L -75.3125 -237.40625 Z M -70.203125 -153.15625 C -70.484375 -153.726562 -70.835938 -154.226562 -71.265625 -154.65625 C -71.691406 -155.082031 -72.046875 -155.578125 -72.328125 -156.140625 C -72.890625 -155.578125 -73.316406 -155.296875 -73.609375 -155.296875 C -73.035156 -154.441406 -72.179688 -153.445312 -71.046875 -152.3125 C -71.046875 -152.3125 -70.765625 -152.59375 -70.203125 -153.15625 Z M -65.9375 -168.046875 C -67.070312 -168.898438 -68.066406 -169.753906 -68.921875 -170.609375 C -69.773438 -171.460938 -70.625 -172.3125 -71.46875 -173.15625 C -72.601562 -170.882812 -72.601562 -168.613281 -71.46875 -166.34375 C -70.34375 -164.082031 -70.34375 -161.816406 -71.46875 -159.546875 L -67.640625 -159.546875 C -67.359375 -161.242188 -67.078125 -162.800781 -66.796875 -164.21875 C -66.515625 -165.644531 -66.226562 -166.921875 -65.9375 -168.046875 Z M -65.515625 -137.421875 C -66.085938 -139.691406 -67.507812 -140.398438 -69.78125 -139.546875 C -69.488281 -138.691406 -69.203125 -137.769531 -68.921875 -136.78125 C -68.640625 -135.789062 -68.359375 -134.867188 -68.078125 -134.015625 C -65.523438 -134.585938 -64.671875 -135.722656 -65.515625 -137.421875 Z M -61.265625 -148.484375 C -61.828125 -149.898438 -62.535156 -151.035156 -63.390625 -151.890625 C -64.242188 -152.734375 -65.09375 -152.734375 -65.9375 -151.890625 C -66.507812 -151.035156 -66.582031 -150.320312 -66.15625 -149.75 C -65.726562 -149.1875 -65.234375 -148.625 -64.671875 -148.0625 C -64.390625 -147.769531 -64.101562 -147.550781 -63.8125 -147.40625 C -63.53125 -147.269531 -63.109375 -146.921875 -62.546875 -146.359375 C -62.253906 -146.921875 -61.96875 -147.34375 -61.6875 -147.625 C -61.40625 -147.914062 -61.265625 -148.203125 -61.265625 -148.484375 Z M -60.84375 -136.140625 C -60.5625 -139.546875 -60.628906 -141.601562 -61.046875 -142.3125 C -61.472656 -143.019531 -63.101562 -143.660156 -65.9375 -144.234375 Z M -54.03125 -267.1875 C -55.164062 -267.1875 -56.300781 -267.253906 -57.4375 -267.390625 C -58.570312 -267.535156 -59.707031 -267.609375 -60.84375 -267.609375 C -59.425781 -265.335938 -58.289062 -264.203125 -57.4375 -264.203125 C -56.582031 -264.203125 -55.445312 -265.195312 -54.03125 -267.1875 Z M -48.5 -262.078125 C -50.769531 -261.796875 -52.117188 -261.15625 -52.546875 -260.15625 C -52.972656 -259.164062 -52.757812 -257.535156 -51.90625 -255.265625 Z M -43.390625 -162.953125 L -43.390625 -164.65625 L -48.5 -163.375 C -47.363281 -162.519531 -46.65625 -162.09375 -46.375 -162.09375 C -45.519531 -162.09375 -44.523438 -162.378906 -43.390625 -162.953125 Z M -42.546875 -140.828125 C -42.546875 -142.242188 -42.613281 -143.445312 -42.75 -144.4375 C -42.894531 -145.4375 -42.96875 -146.5 -42.96875 -147.625 L -43.828125 -148.484375 C -46.085938 -146.785156 -47.144531 -145.648438 -47 -145.078125 C -46.863281 -144.515625 -45.378906 -143.097656 -42.546875 -140.828125 Z M -40.84375 -259.09375 C -41.125 -259.664062 -41.40625 -260.09375 -41.6875 -260.375 C -41.976562 -260.65625 -42.265625 -260.941406 -42.546875 -261.234375 L -43.828125 -259.953125 C -43.535156 -259.671875 -43.25 -259.382812 -42.96875 -259.09375 C -42.6875 -258.8125 -42.257812 -258.390625 -41.6875 -257.828125 Z M -40 -253.5625 L -42.546875 -248.46875 C -40.554688 -248.75 -39.488281 -249.101562 -39.34375 -249.53125 C -39.207031 -249.957031 -39.425781 -251.300781 -40 -253.5625 Z M -40 -253.5625 "/></g></g></g></svg>